PathFileType	4	(X/Y/Z)	1_2_45_p1_0-170_filt_butterworth.trc
DataRate	CameraRate	NumFrames	NumMarkers	Units	OrigDataRate	OrigDataStartFrame	OrigNumFrames
59.0	59.0	6	27	m	59.0	106	170
Frame#	Time	RHip			RKnee			RAnkle			RBigToe			RSmallToe			RHeel			LHip			LKnee			LAnkle			LBigToe			LSmallToe			LHeel			Neck			Head			Nose			RShoulder			RElbow			RWrist			RThumb			RIndex			RPinky			LShoulder			LElbow			LWrist			LThumb			LIndex			LPinky			
		X1	Y1	Z1	X2	Y2	Z2	X3	Y3	Z3	X4	Y4	Z4	X5	Y5	Z5	X6	Y6	Z6	X7	Y7	Z7	X8	Y8	Z8	X9	Y9	Z9	X10	Y10	Z10	X11	Y11	Z11	X12	Y12	Z12	X13	Y13	Z13	X14	Y14	Z14	X15	Y15	Z15	X16	Y16	Z16	X17	Y17	Z17	X18	Y18	Z18	X19	Y19	Z19	X20	Y20	Z20	X21	Y21	Z21	X22	Y22	Z22	X23	Y23	Z23	X24	Y24	Z24	X25	Y25	Z25	X26	Y26	Z26	X27	Y27	Z27	
106	1.7966101694915255	0.38488579744786133	0.25304429374228626	1.1178412045780004	0.3879629024101685	0.3172561368386347	1.5171611788079105	0.3753335607436469	0.41626892083076195	1.9566724808292577	0.34724830453173156	0.21752336642465087	2.002296914451346	0.411127508909668	0.2825772164253878	2.0290019693729384	0.3452316286843211	0.4771533935312625	2.0049340432221765	0.16367636723848342	0.2366911841574117	1.11101292393165	0.1812911559366808	0.34877893114471636	1.52411694902127	0.19404973573227607	0.4251823928604392	1.9545706564545977	0.166175981834639	0.22716033069273409	2.013982626592813	0.12101142029393396	0.24295557597468925	1.9862330028699857	0.21452196480282498	0.46987092648222384	1.996967976594965	0.2620300872509769	0.17919601518015726	0.4696525448720649	0.26133494426087506	0.08560241303957923	0.22363837390461228	0.2513962285774739	0.04238165027345399	0.3753233734093443	0.45171091425745913	0.1844171345604659	0.5506222048050045	0.4731818943699685	0.2062794177570786	0.8607248756570652	0.43303184712072074	0.12725299952693575	1.1079841010107296	0.3507010202430358	0.09359168008997189	1.2071470377598563	0.36842966281227807	0.12088175082426007	1.2487521885717605	0.40874337615883843	0.18880053253937526	1.2584843254656395	0.09332180048944984	0.24247581496040516	0.566785316105267	0.04753097582148326	0.2188759006809104	0.8537068403938931	0.0717506639387966	0.15737596976278767	1.1031683584043765	0.1450772377427866	0.08315902058096733	1.1806511775129327	0.13638206291896815	0.07973689704474049	1.2167687049373206	0.0827573023601977	0.14441126852861458	1.2372390282139143
107	1.8135593220338984	0.3848551056102436	0.25277274610857803	1.1177961514287584	0.388410562276401	0.3152773116708554	1.5166603419467248	0.37535644363673815	0.41626013884895047	1.9566622856979343	0.347413101943431	0.2179688030368375	2.001958418618938	0.41104906981629613	0.285345764023087	2.028873685638524	0.34519562112032776	0.4769856243475858	2.0049173442429824	0.16365988069474247	0.2370579893794911	1.1118051610194457	0.18102274194276768	0.3507530191595998	1.5249462591712681	0.19405217695217236	0.42515157287554184	1.9545627710617683	0.16649900978363247	0.2266922371648346	2.012036564017741	0.12101132087580159	0.24288335435844483	1.9861979382311736	0.2146169118702956	0.46997484272542017	1.9969187278900615	0.2620145858560502	0.17912891301810646	0.4696588459323826	0.26131988936541717	0.08563551179374798	0.22362370736614393	0.2513211572975828	0.042182534104286996	0.37537834894277095	0.45155466001740685	0.1849166687780389	0.5498111686625936	0.47324697143801003	0.20571316957892027	0.8616623564730003	0.4348502398225278	0.1273008229234232	1.1093432965499768	0.3531785142815521	0.09434466593026128	1.2095908291168764	0.3721801271659382	0.12501551298792132	1.2515126082230805	0.4090036104587983	0.1886289648149596	1.2600250142005245	0.09327452558216925	0.24262557869966223	0.5667970084979647	0.04759019706151374	0.21860972603648332	0.8539707038594856	0.07032948933649885	0.15735910469029524	1.10533647352197	0.14480691637144905	0.08368760630247896	1.185235806571282	0.13462926829242522	0.07758823356944093	1.218228391855704	0.0808379476730328	0.14598657749428673	1.2393549875031447
108	1.8305084745762712	0.384836629707377	0.2501470842150075	1.1171992725173991	0.3884394991252664	0.3153074341220756	1.517118797404819	0.37537322793337935	0.4162335309701275	1.9566271768874135	0.3473903209035046	0.21897691108393028	2.0010014483007703	0.41101473970946867	0.2877105530744573	2.028339394602056	0.34517043816739157	0.47680240974785926	2.004854120878234	0.1637613587961728	0.2370781832899338	1.112251765818427	0.1810628307788132	0.35430412513660925	1.5265577147516358	0.19399621217364493	0.42537477994754713	1.9541058714952544	0.16595487565547815	0.2253238571789929	2.009456312742543	0.121001207534704	0.24281621864980293	1.9861291897044298	0.2146440364240889	0.46990587928937916	1.9968714282614082	0.26199180504538805	0.1790550473820256	0.46965947391054624	0.2611890782860362	0.08563855820750642	0.22359760304813295	0.2512836012484332	0.04215171014877127	0.37545807363230593	0.45134615491251073	0.18557399547673453	0.5487530895294775	0.4732383169960741	0.20513955181238536	0.8620110239889354	0.43685562984702997	0.12730152968382216	1.1103918142642728	0.3567639783813194	0.09713473672172433	1.2116191741856248	0.3763516737131487	0.129595783805343	1.2543746822687396	0.4096817958902812	0.18695108941056	1.2620195948507618	0.09318659135046631	0.24290966643576958	0.5668168774324304	0.04770127096546431	0.21873611605593296	0.8540329893070888	0.06876872115489102	0.15747464213490922	1.1086398197430858	0.1442367543340637	0.08624159507214943	1.1913423636885587	0.1308373686553056	0.07435294544431617	1.2197415177997004	0.07924000590090143	0.14550134200366516	1.2410304257468554
109	1.847457627118644	0.38482133711551764	0.24367697720554804	1.1155762506593692	0.38833921462505216	0.3156844632815377	1.5182053575987413	0.3753772036157014	0.4162080686154339	1.9565792572974205	0.34695773812375486	0.2202008037065922	1.9990863739784548	0.411122453958657	0.2880943662468673	2.027133097448687	0.3451867078712919	0.47674784253466757	2.004797197803744	0.1640178674035315	0.2340157075489514	1.112842953242821	0.18163981234302218	0.3542851545235034	1.5267005569457117	0.19384870192479287	0.4259864174768039	1.9530164228640743	0.16516152479560323	0.22278942826175988	2.0074457232544742	0.12098136675981806	0.24278418382889982	1.9860467768910404	0.21464249490948295	0.46984063896831085	1.9968579649492395	0.26198139211973875	0.17898796325032806	0.46964918049501136	0.26111013897363367	0.08562830362387645	0.2235721488789884	0.25152541112407967	0.043095592473605206	0.37541872013950095	0.4511795897831182	0.18606527755214472	0.5479400701407797	0.473172746299281	0.2047285017195135	0.862008201927411	0.4386646444909052	0.12721784376087042	1.1106826111765564	0.36012231245940435	0.1012267436226863	1.2127107575169234	0.38024501020430185	0.13449932637060524	1.2569867947708397	0.4109406202461092	0.18345549769666908	1.263391161506429	0.09319077832853166	0.24292070089554693	0.5668159078484362	0.047748554904515204	0.2187148022016434	0.854004572995251	0.06728134614410229	0.1576834359263117	1.112452428519035	0.1433227442084707	0.08999907038188423	1.1970227934540993	0.12528301517494808	0.07199122632863489	1.2212204659503456	0.07765639326656514	0.1446011429350158	1.2419290635710079
110	1.8644067796610169	0.3848082476036806	0.2350868258618472	1.1133427056024288	0.3882658560306637	0.31565641359937874	1.519475849959458	0.3753752611771322	0.4161893914153976	1.9565400412872749	0.34634572195729374	0.22101028071119716	1.9970994448531418	0.41144969943665144	0.2870560700899896	2.0259751274448425	0.34523898864936375	0.47682445119597355	2.0047849006017575	0.16450583385825485	0.22774207567180502	1.1137169613651106	0.18227728833642803	0.34821969512487744	1.524442353018493	0.19366019583909902	0.42679356702922633	1.9516699392248185	0.16476281645422947	0.2206715208287976	2.0071933133985604	0.12095373547077623	0.242822300650682	1.9859963770292937	0.21464418602796947	0.4698252995047687	1.996872102090061	0.2619996048203064	0.1789428989971739	0.46963111579863276	0.2611121542273988	0.08557052303430156	0.2235708345496111	0.25231180089840105	0.045807730571741624	0.3749743929894105	0.45109918848675057	0.18626700024901988	0.5475803272814215	0.4731660200959059	0.20478637312563147	0.8619426425911685	0.4404453797621281	0.1269800036349523	1.1098712092436211	0.3628081688145068	0.10500737561508108	1.2127046624494453	0.383913055009211	0.1389633310277664	1.2593321611203112	0.412355179821455	0.179265097143519	1.2633715450321756	0.09363637564533214	0.24169748232318874	0.5666992684097478	0.047740997528825733	0.21851762505892852	0.8539271844005852	0.06631416177686147	0.157576316292997	1.1156546469621662	0.14228324977603032	0.09241380430264419	1.2005010946296109	0.11853718812641084	0.0732781746757918	1.2228448171100545	0.07558336803757998	0.14474017714298182	1.2420774313432739
111	1.88135593220339	0.38481431755969187	0.2285321031897943	1.1116239758998134	0.3882595121945139	0.31533966998893187	1.5203363675793122	0.3753758960107055	0.4161801099345202	1.956521678020896	0.3459766198851124	0.2210783570763027	1.9962298850274944	0.41166234382497097	0.2859150283385637	2.0252943752839405	0.345292510015919	0.47690883659104677	2.004814179592423	0.16502634483421733	0.22181595850194696	1.1147971703506243	0.18235020472914207	0.33993664482179126	1.5218099837583892	0.1935283930352477	0.4273992473504021	1.9507518308294283	0.16503739642064819	0.22119639622899373	2.0087077722156104	0.12092336794910005	0.24291088016010237	1.9859970187390723	0.2146563863295174	0.46983340117272776	1.9969012207305872	0.26204330323170977	0.1789160228565358	0.4696115968101804	0.2611553666320363	0.08542537541884601	0.22360592143690394	0.25365011533690873	0.04983377308530265	0.37395001378296544	0.45107888363541976	0.18629779003134206	0.5474996531019628	0.47347721032121254	0.2060003366572182	0.8619332473492948	0.4427146070351915	0.12659167018896225	1.108532401929395	0.3651429165471052	0.10756324749875723	1.2121778572066604	0.3876077463842561	0.14228786113972605	1.2615371635624784	0.41331427285679795	0.17642115582274495	1.262479306758343	0.09480114858548692	0.2385150875868626	0.5663828319566283	0.04771619581608204	0.2183612614149369	0.853803244554289	0.06601536957744897	0.15709634377955597	1.1179737572378505	0.14088787164553082	0.0925857916886611	1.2022019149212317	0.11081950378395576	0.08009681832736763	1.225821054233529	0.07282569216768607	0.146560392101092	1.2418699322018563
